<svg width="195" height="104" viewBox="0 0 195 104" fill="none" xmlns="http://www.w3.org/2000/svg">
<path d="M78.359 94.5698C73.7403 97.7525 68.949 100.916 64 104L78.359 94.5698C119.731 66.0611 147.241 36.0088 150 47.52L78.359 94.5698Z" fill="#6CC8FF"/>
<path d="M63.5259 94.5698C58.8536 97.7524 54.0065 100.916 49 104L63.5259 94.5698C105.379 66.0611 133.209 36.0088 136 47.52L63.5259 94.5698Z" fill="white"/>
<path d="M51.359 94.5698C46.7403 97.7525 41.949 100.916 37 104L51.359 94.5698C92.7308 66.0611 120.241 36.0088 123 47.52L51.359 94.5698Z" fill="#6CC8FF"/>
<path d="M65 82C65 82 76.4172 49.0666 87.2053 20.0244C97.9934 -9.01781 87.2053 61.384 87.2053 61.384L65 82Z" fill="#6CC8FF"/>
<path d="M80.936 62.4837C80.936 62.4837 76.8581 58.5379 85.4763 39.3807C94.0945 20.2236 92.223 28.2938 87.7146 39.613C83.2062 50.9322 83.1742 62.716 83.1742 62.716L80.936 62.4837Z" fill="white"/>
<path d="M40.716 95.26C38.7 95.26 37.244 94.7933 36.348 93.86C35.4707 92.908 35.032 91.368 35.032 89.24V79.328L28.9 94H27.976L20.472 78.768V94H19.072V75.52H22.488L29.264 89.268L35.004 75.52H38.672V89.24C38.672 90.9947 38.8213 92.2827 39.12 93.104C39.4187 93.9253 39.9507 94.4107 40.716 94.56V95.26ZM51.3658 94.56C49.5552 94.56 47.9405 94.1307 46.5218 93.272C45.1218 92.4133 44.0392 91.2373 43.2738 89.744C42.5085 88.2507 42.1258 86.5893 42.1258 84.76C42.1258 82.9307 42.5085 81.2693 43.2738 79.776C44.0392 78.2827 45.1218 77.1067 46.5218 76.248C47.9405 75.3893 49.5552 74.96 51.3658 74.96C53.1765 74.96 54.7818 75.3893 56.1818 76.248C57.5818 77.1067 58.6645 78.2827 59.4298 79.776C60.1952 81.2693 60.5778 82.9307 60.5778 84.76C60.5778 86.5893 60.1952 88.2507 59.4298 89.744C58.6645 91.2373 57.5818 92.4133 56.1818 93.272C54.7818 94.1307 53.1765 94.56 51.3658 94.56ZM51.3658 93.3C53.0645 93.3 54.3805 92.5627 55.3138 91.088C56.2472 89.5947 56.7138 87.4853 56.7138 84.76C56.7138 82.0347 56.2472 79.9347 55.3138 78.46C54.3805 76.9667 53.0645 76.22 51.3658 76.22C49.6672 76.22 48.3512 76.9667 47.4178 78.46C46.5032 79.9347 46.0458 82.0347 46.0458 84.76C46.0458 87.4853 46.5032 89.5947 47.4178 91.088C48.3512 92.5627 49.6672 93.3 51.3658 93.3ZM71.5696 94.28C66.5296 94.28 64.0096 91.4987 64.0096 85.936V79.16C64.0096 78.208 63.8789 77.508 63.6176 77.06C63.3563 76.5933 62.8336 76.36 62.0496 76.36V75.52H65.1296C65.8016 75.52 66.3149 75.632 66.6696 75.856C67.0243 76.08 67.2763 76.4533 67.4256 76.976C67.5749 77.48 67.6496 78.208 67.6496 79.16L67.6776 86.776C67.6963 88.7547 68.0789 90.2947 68.8256 91.396C69.5909 92.4787 70.6923 93.02 72.1296 93.02C74.0336 93.02 75.4149 92.46 76.2736 91.34C77.1509 90.2013 77.5896 88.4 77.5896 85.936V75.52H78.9896V85.936C78.9896 88.68 78.4109 90.7613 77.2536 92.18C76.0963 93.58 74.2016 94.28 71.5696 94.28ZM85.019 80.14V94H83.619V78.88C83.619 78.096 83.423 77.48 83.031 77.032C82.6577 76.584 82.0137 76.36 81.099 76.36H80.959V75.52H82.919C83.9643 75.52 84.8137 75.66 85.467 75.94C86.139 76.2013 86.699 76.6213 87.147 77.2L96.779 88.4V75.52H98.179V94.084H96.891L85.019 80.14ZM106.758 76.78H104.77C103.724 76.78 102.922 77.0413 102.362 77.564C101.82 78.0867 101.55 78.9453 101.55 80.14H100.71V77.76C100.71 76.2667 101.503 75.52 103.09 75.52H116.25V76.78H110.398V94H106.758V76.78ZM132.047 94.28C131.021 94.28 130.087 93.9813 129.247 93.384C128.407 92.768 127.53 91.7133 126.615 90.22L123.815 85.544H122.695V94H119.027V79.16C119.027 78.208 118.897 77.508 118.635 77.06C118.374 76.5933 117.851 76.36 117.067 76.36H116.787V75.52H124.515C126.457 75.52 128.202 75.8747 129.751 76.584C131.301 77.2933 132.075 78.656 132.075 80.672C132.075 83.0053 130.563 84.5547 127.539 85.32L130.479 90.22C131.581 92.068 132.738 93.0947 133.951 93.3V94C133.802 94.0747 133.531 94.14 133.139 94.196C132.747 94.252 132.383 94.28 132.047 94.28ZM124.375 84.424C125.421 84.424 126.307 84.116 127.035 83.5C127.782 82.8653 128.155 81.876 128.155 80.532C128.155 79.2067 127.791 78.2267 127.063 77.592C126.335 76.9573 125.486 76.64 124.515 76.64C123.974 76.64 123.554 76.6773 123.255 76.752L122.695 76.836V84.424H124.375ZM138.353 94C137.681 94 137.168 93.8973 136.813 93.692C136.458 93.468 136.206 93.104 136.057 92.6C135.908 92.0773 135.833 91.3307 135.833 90.36V75.52H139.473V90.36C139.473 91.312 139.604 92.0213 139.865 92.488C140.126 92.936 140.649 93.16 141.433 93.16H141.713V94H138.353ZM144.785 79.16C144.785 78.208 144.654 77.508 144.393 77.06C144.132 76.5933 143.609 76.36 142.825 76.36H142.545V75.52H150.161C153.932 75.52 156.797 76.3227 158.757 77.928C160.736 79.5147 161.725 81.7547 161.725 84.648C161.725 86.496 161.305 88.1293 160.465 89.548C159.644 90.948 158.412 92.04 156.769 92.824C155.145 93.608 153.185 94 150.889 94H144.785V79.16ZM150.805 92.88C152.112 92.88 153.269 92.5533 154.277 91.9C155.304 91.2467 156.097 90.304 156.657 89.072C157.236 87.84 157.525 86.4027 157.525 84.76C157.525 83.136 157.236 81.7173 156.657 80.504C156.097 79.272 155.304 78.32 154.277 77.648C153.25 76.976 152.074 76.64 150.749 76.64H150.525C149.909 76.64 149.414 76.6773 149.041 76.752L148.425 76.836V92.684L149.041 92.796C149.433 92.852 149.928 92.88 150.525 92.88H150.805ZM165.238 79.16C165.238 78.208 165.107 77.508 164.846 77.06C164.585 76.5933 164.062 76.36 163.278 76.36H162.998V75.52H175.346C176.933 75.52 177.726 76.2667 177.726 77.76V80.14H176.886C176.886 78.9827 176.587 78.1333 175.99 77.592C175.411 77.0507 174.543 76.78 173.386 76.78H168.878V83.78H176.158V85.04H168.878V92.74H173.666C174.73 92.74 175.617 92.5067 176.326 92.04C177.035 91.5547 177.623 90.724 178.09 89.548L178.846 89.828L178.034 92.04C177.791 92.712 177.502 93.2067 177.166 93.524C176.83 93.8413 176.307 94 175.598 94H165.238V79.16ZM187.011 94.476C185.966 94.476 184.958 94.336 183.987 94.056C183.017 93.7947 182.223 93.412 181.607 92.908C180.991 92.3853 180.683 91.788 180.683 91.116V87.84H181.467C181.747 89.744 182.335 91.116 183.231 91.956C184.127 92.796 185.378 93.216 186.983 93.216C188.066 93.216 188.925 92.9827 189.559 92.516C190.194 92.0493 190.511 91.3773 190.511 90.5C190.511 89.7533 190.278 89.1187 189.811 88.596C189.345 88.0733 188.617 87.504 187.627 86.888L184.183 84.816C182.933 84.088 182.037 83.332 181.495 82.548C180.973 81.764 180.711 80.8493 180.711 79.804C180.711 78.3293 181.271 77.1627 182.391 76.304C183.53 75.4453 185.061 75.016 186.983 75.016C188.029 75.016 189.037 75.156 190.007 75.436C190.978 75.6973 191.771 76.0893 192.387 76.612C193.003 77.116 193.311 77.704 193.311 78.376V81.652H192.527C192.21 79.748 191.622 78.376 190.763 77.536C189.905 76.696 188.747 76.276 187.291 76.276C186.283 76.276 185.481 76.5187 184.883 77.004C184.305 77.4893 184.015 78.152 184.015 78.992C184.015 79.72 184.239 80.3267 184.687 80.812C185.154 81.2787 185.901 81.8107 186.927 82.408L190.371 84.452C191.678 85.2173 192.611 85.964 193.171 86.692C193.75 87.4013 194.039 88.26 194.039 89.268C194.039 90.892 193.423 92.1707 192.191 93.104C190.978 94.0187 189.251 94.476 187.011 94.476Z" fill="#6CC8FF"/>
</svg>
